<!DOCTYPE svg PUBLIC "-//W3C//DTD SVG 1.1//EN" "http://www.w3.org/Graphics/SVG/1.1/DTD/svg11.dtd">
<!-- Uploaded to: SVG Repo, www.svgrepo.com, Transformed by: SVG Repo Mixer Tools -->
<svg width="800px" height="800px" viewBox="0 0 32 32" xmlns="http://www.w3.org/2000/svg" fill="#ec0d75">
<g id="SVGRepo_bgCarrier" stroke-width="0"/>
<g id="SVGRepo_tracerCarrier" stroke-linecap="round" stroke-linejoin="round" stroke="#CCCCCC" stroke-width="0.256"/>
<g id="SVGRepo_iconCarrier"> <defs> <style>.cls-1{fill:#ec0d75;}.cls-2{fill:#ec0d75;}</style> </defs> <g data-name="13. Opened Box" id="_13._Opened_Box"> <path class="cls-1" d="M13,15h6a0,0,0,0,1,0,0v3.78A1.22,1.22,0,0,1,17.78,20H14.22A1.22,1.22,0,0,1,13,18.78V15A0,0,0,0,1,13,15Z"/> <path class="cls-2" d="M29.71,10.29a1,1,0,0,0-1.42,0L24.59,14H7.41l-3.7-3.71a1,1,0,0,0-1.42,1.42L6,15.41V29a3,3,0,0,0,3,3H23a3,3,0,0,0,3-3V15.41l3.71-3.7A1,1,0,0,0,29.71,10.29ZM24,29a1,1,0,0,1-1,1H9a1,1,0,0,1-1-1V16H24Z"/> <path class="cls-2" d="M13,28H11a1,1,0,0,1,0-2h2a1,1,0,0,1,0,2Z"/> <circle class="cls-1" cx="16" cy="6" r="6"/> <path class="cls-2" d="M16,9a1,1,0,0,1-.71-.29l-3-3a1,1,0,0,1,1.42-1.42L16,6.59l5.29-5.3a1,1,0,1,1,1.42,1.42l-6,6A1,1,0,0,1,16,9Z"/> </g> </g>
</svg>